<?xml version="1.0" encoding="utf-8"?>
<!-- Generator: Adobe Illustrator 24.0.1, SVG Export Plug-In . SVG Version: 6.00 Build 0)  -->
<svg version="1.1" id="レイヤー_1" xmlns="http://www.w3.org/2000/svg" xmlns:xlink="http://www.w3.org/1999/xlink" x="0px"
	 y="0px" width="300px" height="300px" viewBox="0 0 300 300" style="enable-background:new 0 0 300 300;" xml:space="preserve">
<style type="text/css">
	.st0{fill-rule:evenodd;clip-rule:evenodd;}
</style>
<g>
	<path class="st0" d="M231.3,81.1C199.1,78.3,172.2,70.9,150,60c-22.2,10.9-49.1,18.3-81.3,21.1c-1.3,86.8,24.6,132,81.3,158.9
		C206.7,213.1,232.6,167.9,231.3,81.1z M199.3,155.9c-5.4,27.3-31.9,45-59.1,39.6c-27.3-5.4-44.9-31.9-39.6-59.1
		c5.4-27.3,31.9-44.9,59.1-39.6C187,102.2,204.7,128.7,199.3,155.9z"/>
	<path class="st0" d="M157.6,108.1c-21.1-4.1-41.6,9.5-45.7,30.6c-4.1,21.1,9.5,41.5,30.6,45.7c21.1,4.2,41.6-9.5,45.7-30.6
		C192.3,132.6,178.6,112.2,157.6,108.1z M151.6,137.7c4.7,0.9,7.7,5.4,6.8,10.1c-0.9,4.7-5.4,7.7-10.1,6.8
		c-4.7-0.9-7.7-5.4-6.8-10.1C142.4,139.9,146.9,136.8,151.6,137.7z M120.5,128.7c4.8-8.1,12.7-13.8,21.8-15.9
		c1.6-0.4,2.6,0.8,3.5,1.9c0.1,5.5,0.1,11.1,0.1,16.7c0,4.1-5.6,7.7-9.3,6.4c-5.1-1.6-10.1-3.2-15.2-4.9
		C120.3,131.6,119.4,130.6,120.5,128.7z M124.3,168.9c-6.1-7.1-9.3-16.3-8.5-25.7c0.1-1.6,1.6-2.3,3-2.7c5.2,1.6,10.3,3.3,15.6,4.9
		c4.3,1.3,5.8,7.7,3.4,11.1l-9.1,12.7C127.1,169.9,125.7,170.5,124.3,168.9z M163.8,177.5c-8.6,3.7-18.4,3.9-27,0.3
		c-1.5-0.6-1.6-2.3-1.6-3.7c3.2-4.5,6.4-9.1,9.6-13.6c2.5-3.5,9-3,11.4,0.4c3.2,4.2,6.3,8.6,9.4,12.8
		C165.6,175.4,165.6,176.7,163.8,177.5z M184.2,143.3c0.8,9.3-2.3,18.6-8.4,25.7c-1.1,1.3-2.6,0.8-3.9,0.4
		c-3.2-4.4-6.4-8.8-9.6-13.2c-2.5-3.4-0.4-9.6,3.6-10.9l15.2-4.9C182.6,140.7,183.9,141.1,184.2,143.3z M178.6,132.5
		c-5,1.6-10.1,3.3-15.1,4.9c-4.3,1.3-9.6-2.1-9.6-6.6l-0.1-15.9c0.9-1.4,1.8-2.7,3.9-2.1c9.1,2.1,17.1,7.8,21.9,15.9
		C180.3,130.1,179.4,131.4,178.6,132.5z"/>
</g>
</svg>
