<svg xmlns="http://www.w3.org/2000/svg" viewBox="0 0 300 300" width="300" height="300">
	<style>
		tspan { white-space:pre }
		.shp0 { fill: #ffffff } 
	</style>
	<path id="Layer" class="shp0" d="M228.2 96.5L234.2 96.5L234.2 127.1L228.2 127.1L228.2 96.5Z" />
	<path id="Layer" class="shp0" d="M64 96.4L70 96.4L70 127.1L64 127.1L64 96.4Z" />
	<path id="Layer" class="shp0" d="M264.3 300.1C265.7 288.3 266.5 276.1 266.5 264.2C266.5 232.5 239.1 207 194.1 196.8C192.3 199.1 147.7 234.8 147.7 234.8C147.7 234.8 106.3 198.8 104.3 196.2C59.3 205.7 31.4 230.2 31.4 264.2C31.4 276.1 32.4 288.3 34 300.1L264.3 300.1Z" />
	<g id="Layer">
		<path id="Layer" class="shp0" d="M149.2 27.9C131.8 27.9 115.3 33.3 103.5 45.3C91.7 57.5 84.6 75.7 84.6 100C85.1 117.6 91.9 141.2 105.5 160.4C106.7 159.1 108.1 157.5 109.9 156.3C111.3 155.4 113.7 154.1 113.7 154.1C113.7 154.1 112.2 151.6 111.7 150.8C103.8 138 98.4 122.9 96.4 110.7C103.2 111.4 111.4 111.3 121.4 109.3C160.8 101.9 179.8 78.7 179.8 78.7C179.8 78.7 188.5 104.6 201.2 114.2C198.9 126.4 193.6 140.1 186.3 151.6C177.6 165.7 166.8 174.8 156.6 178.1C155.3 179.8 151.1 184.7 147.6 186.7C146.1 187.6 144.2 188.3 142.1 188.7C144.4 189.2 146.7 189.5 149.2 189.6C187.6 188.1 212.9 133.9 213.6 100C213.6 75.7 206.5 57.4 194.7 45.3C182.9 33.3 166.5 27.9 149.2 27.9Z" />
		<path id="Layer" class="shp0" d="M235.1 86.7C233.7 64.1 224.4 43.3 210.3 28C194.8 11.3 173.1 0.9 149.3 0.9C125.4 0.9 103.8 11.2 88.1 27.9C73.8 43.2 64.7 63.7 63.3 86.4L56.2 93.5L56.2 129.7L67.1 140.7C67.3 148.1 68.8 161.1 77.2 170.4C83.7 177.3 93.4 178.5 101.7 178.5C104.2 178.5 106.7 178.4 108.8 178.1C112.6 183.3 120.3 186.8 129.4 186.8C131.2 186.8 133.1 186.6 134.8 186.3C136.4 186 140.9 185 144.4 182.9C148.1 180.7 150.8 177 150.8 177L150.8 177C151.7 175.4 152.3 173.7 152.3 171.9C152.3 163.4 142.1 156.7 129.3 156.7C124.9 156.7 121.1 157.7 117.5 159L117.5 159C116.1 159.6 114.7 160.3 113.3 161.2C111.4 162.4 109.9 164 108.8 165.3C108 166.5 107.3 167.8 106.9 169.1C105.2 169.2 103.3 169.3 101.5 169.2C94.1 169.3 86.6 167.6 83.6 164C77.1 157.1 75.9 143.6 76 137.9C76 136.2 76.1 135.2 76 135.2L76 135.2L76 88.7C77.1 68.3 85.1 50.3 97.6 36.8C111 22.6 129 14 149.3 14C169.3 14 187.5 22.7 200.7 37C212.9 50 221 67.8 222.2 87.7L222.2 144L228.3 144L242.2 130.1L242.2 93.9L235.1 86.7Z" />
	</g>
</svg>