<?xml version="1.0" encoding="utf-8"?>
<!-- Generator: Adobe Illustrator 24.0.1, SVG Export Plug-In . SVG Version: 6.00 Build 0)  -->
<svg version="1.1" id="レイヤー_1" xmlns="http://www.w3.org/2000/svg" xmlns:xlink="http://www.w3.org/1999/xlink" x="0px"
	 y="0px" width="300px" height="300px" viewBox="0 0 300 300" style="enable-background:new 0 0 300 300;" xml:space="preserve">
<style type="text/css">
	.st0{display:none;fill:#303030;}
</style>
<polygon class="st0" points="49.1,126.5 54.7,127.6 43.6,115 58,119.1 50.4,96.7 61.2,107.4 62.5,97.3 68.4,106.8 72.5,81.4 
	75.6,99.5 86.7,89.3 83.7,106.1 103.3,94.4 92.8,125.8 106.8,122 89.7,134.1 98.1,135.6 123.8,112.7 97.8,119.6 113.7,81 88.7,98 
	93.5,79 79.2,88.7 70.2,60.4 66.4,96.6 61.6,84.5 59.2,97.1 43.7,87.1 51.5,113.7 32.9,108.4 "/>
<g>
	<rect x="50" y="213.4" width="36.5" height="36.5"/>
	<rect x="50" y="172.6" width="36.5" height="36.5"/>
	<rect x="50" y="131.7" width="36.5" height="36.5"/>
	<rect x="50" y="90.9" width="36.5" height="36.5"/>
	<rect x="50" y="50" width="36.5" height="36.5"/>
</g>
<g>
	<polygon points="158.4,134.9 171.9,119.5 153.7,118.9 155,99.8 138.5,106.7 129,91.1 118.8,106.7 104.2,98.5 103,118.8 95,85.8 
		115,94.3 131,73.2 142.1,91.9 164.7,85.3 163.7,110.6 189.4,116.1 	"/>
</g>
<path d="M250,103.6l-35.7,3.9c-4.5,0.5-8.7,2.5-12.1,5.5L163,149.8c0,0-31.7,4.5-49.7,16.3c-1.1,0.7-2.1,1.4-3,2.2
	c-0.1,0.1-0.1,0.1-0.1,0.1l0,0c-5.4,4.9-7.9,12.7-5.7,20.2l4.2,14.6c-2,1.4-3,4.1-2,6.5l5.7,14.5c0.9,2.3,3.3,3.7,5.7,3.5l16.2-1.7
	c3.9,15.1,18.3,25.4,34.2,23.7c15.9-1.7,27.8-14.9,28.4-30.5l53.2-5.7L250,103.6L250,103.6z M167,236.4
	c-10.1,1.1-19.2-6.2-20.3-16.3c-1.1-10.1,6.2-19.2,16.3-20.3c10.1-1.1,19.2,6.2,20.3,16.3C184.4,226.2,177.1,235.4,167,236.4z
	 M187,142.1l21.2-22.7c1.9-1.8,4.4-2.9,7-3.2l21.7-2.3l3.9,33.8l-43.5,4.9L187,142.1z"/>
</svg>
