<?xml version="1.0" encoding="utf-8"?>
<!-- Generator: Adobe Illustrator 24.0.1, SVG Export Plug-In . SVG Version: 6.00 Build 0)  -->
<svg version="1.1" id="レイヤー_1" xmlns="http://www.w3.org/2000/svg" xmlns:xlink="http://www.w3.org/1999/xlink" x="0px"
	 y="0px" width="300px" height="300px" viewBox="0 0 300 300" style="enable-background:new 0 0 300 300;" xml:space="preserve">
<g>
	<path d="M279.9,124l12.7-5.6c5.1-2.3,7.8-8.9,5.2-14.3c-1.3-2.8-3.8-4.9-7.2-5.4c0,0-10.3-3.4-19-2c-2.6,0.4-4.9,2-6.4,4.4v0.1
		l-2.8,4.3l-12.3-28.6c-6.7-15.6-18.9-25.9-32.6-27.7c-44.9-5.8-90.1-5.8-134.9,0C68.8,51,56.6,61.3,50,76.9l-12.3,28.6l-2.8-4.3
		v-0.1c-1.5-2.3-3.8-4-6.4-4.4c-8.7-1.4-19,2-19,2c-3.4,0.5-5.8,2.6-7.2,5.4c-2.6,5.4,0.1,12,5.2,14.3l12.7,5.6
		c-13,8.8-21.1,26.1-20,44.8c0.9,15.8,4.7,32.1,9.2,42.6v25c0,10.4,7.7,18.9,17.3,18.9h28c9.5,0,17.3-8.5,17.3-18.9v-6l45.7,1.4H150
		h32.4l45.7-1.4v6c0,10.4,7.7,18.9,17.3,18.9h28c9.5,0,17.3-8.5,17.3-18.9v-25c4.5-10.5,8.3-26.8,9.2-42.6
		C301,150,292.9,132.8,279.9,124z M58.9,83.1C64,71.3,73.2,63.5,83.6,62.2c22-2.8,44.3-4.3,66.4-4.3s44.4,1.4,66.4,4.3
		c10.4,1.3,19.7,9.2,24.7,20.9l14.8,34.6c-20.4-1.5-61.1-3.4-103.3-3.4c-42.8,0-87,2-108.7,3.5L58.9,83.1z M72.3,185.5H41.5
		c-5.7,0-10.9-4.3-13.2-10.9l-0.8-2.4c-3.6-10.5,3.4-21.9,12.4-20.1c0,0,39.1,5.5,42.4,16.2C84.4,176.9,79.3,185.5,72.3,185.5z
		 M272.5,172.2l-0.8,2.4c-2.3,6.6-7.5,10.9-13.2,10.9h-30.7c-7.1,0-12.1-8.6-10.1-17.1c3.3-10.7,42.4-16.2,42.4-16.2
		C269,150.3,276.1,161.7,272.5,172.2z"/>
</g>
</svg>
