<svg xmlns="http://www.w3.org/2000/svg" viewBox="0 0 300 300" width="300" height="300">
	<style>
		tspan { white-space:pre }
		.shp0 { fill: #ffffff } 
	</style>
	<g id="レイヤー_1">
	</g>
	<g id="レイヤー_2">
		<g id="Layer">
			<path id="Layer" fill-rule="evenodd" class="shp0" d="M211.3 275C208.6 278 183.9 310.2 144.3 296.8C104.8 283.1 74.4 258.6 52.1 232.3C29.8 206.2 10.4 172.3 3.4 131.5C-3.3 90.5 33 71.9 36.5 69.8C40 67.7 55.3 64.2 62 74.1C68.7 84 81.1 114.7 82.2 122.2C83.3 129.7 75.5 137.8 66.3 139.4C57.1 141 57.7 145.6 57.7 145.6C57.7 145.6 62.8 163.6 92.1 198.3C121.7 233 138.6 240.8 138.6 240.8C138.6 240.8 143.2 242.1 146.4 233.5C149.6 224.9 159 218.7 166.3 221.1C173.6 223.5 202.1 240.5 210.9 248.8C220.2 257.7 214 272 211.3 275Z" />
			<g id="Layer">
				<path id="Layer" class="shp0" d="M178.5 176.9L194.8 174.3C192 157 183.9 140.2 170.6 126.9C157.2 113.5 140.5 105.4 123.2 102.7L120.6 119C134.7 121.3 148.1 127.8 159 138.6C169.8 149.4 176.3 162.8 178.5 176.9Z" />
				<path id="Layer" class="shp0" d="M131.2 51.3L128.6 67.6C153.1 71.5 176.7 82.8 195.6 101.7C214.5 120.6 225.9 144.2 229.7 168.7L246 166.1C241.6 138.3 228.7 111.4 207.2 90C185.9 68.5 159.1 55.6 131.2 51.3Z" />
				<path id="Layer" class="shp0" d="M244.1 53.4C214.5 23.8 177.7 6 139.4 0L136.8 16.3C171.8 21.8 205.4 38 232.4 65C259.4 92 275.6 125.6 281.1 160.6L297.4 158C291.4 119.8 273.6 82.9 244.1 53.4Z" />
			</g>
		</g>
	</g>
</svg>