<?xml version="1.0" encoding="utf-8"?>
<!-- Generator: Adobe Illustrator 24.0.1, SVG Export Plug-In . SVG Version: 6.00 Build 0)  -->
<svg version="1.1" id="レイヤー_1" xmlns="http://www.w3.org/2000/svg" xmlns:xlink="http://www.w3.org/1999/xlink" x="0px"
	 y="0px" width="300px" height="300px" viewBox="0 0 300 300" style="enable-background:new 0 0 300 300;" xml:space="preserve">
<g>
	<path d="M105.3,75.3l7.5,12.2c1.6,2.6,5.5,4.6,8.9,4.6h56.3c3.3,0,7.3-1.9,8.9-4.6l7.5-12.2c0.6-1,1-2.1,1.2-3
		c0.4-2.8-1.4-4.9-5.1-4.9h-19.7c0.2-0.6,0.3-1.3,0.3-1.9c0-3-2.2-5.5-5-5.5h-32.9c-2.7,0-5,2.4-5,5.5c0,0.7,0.1,1.4,0.3,1.9h-19.5
		c-3.7,0-5.5,2.1-5.1,4.9C104.3,73.2,104.7,74.2,105.3,75.3z M150,63.7c3.9,0,7,3.2,7,7c0,1.3-0.4,2.5-1,3.5c-1.2,2.1-3.5,3.5-6,3.5
		c-2.6,0-4.8-1.4-6-3.5c-0.6-1-1-2.3-1-3.5C143,66.8,146.1,63.7,150,63.7z"/>
	<path d="M209.2,74.9h-2.7c-0.3,1.7-1,3.4-2.1,5.1L196,93.5c-2.8,4.5-9,7.7-14.8,7.7h-62.6c-5.8,0-12-3.3-14.8-7.7L95.5,80
		c-1-1.7-1.7-3.4-2.1-5.1h-2.6c-1.7,0-3.1,1.4-3.1,3.1v158.9c0,1.7,1.4,3.1,3.1,3.1h118.3c1.7,0,3.1-1.4,3.1-3.1V78
		C212.3,76.3,210.9,74.9,209.2,74.9z M107.9,123.6h50.9c1.6,0,2.8,1.3,2.8,2.9s-1.3,2.8-2.8,2.8h-50.9c-1.6,0-2.8-1.3-2.8-2.8
		C105,124.9,106.3,123.6,107.9,123.6z M158.8,211.7h-50.9c-1.6,0-2.8-1.3-2.8-2.9c0-1.6,1.3-2.8,2.8-2.8h50.9c1.6,0,2.8,1.3,2.8,2.8
		C161.6,210.4,160.4,211.7,158.8,211.7z M192.1,191.1h-84.2c-1.6,0-2.8-1.3-2.8-2.8c0-1.6,1.3-2.9,2.8-2.9h84.2
		c1.6,0,2.9,1.3,2.9,2.9C195,189.9,193.7,191.1,192.1,191.1z M105,167.7c0-1.6,1.3-2.8,2.8-2.8h50.9c1.6,0,2.8,1.3,2.8,2.8
		c0,1.6-1.3,2.9-2.8,2.9h-50.9C106.3,170.5,105,169.3,105,167.7z M192.1,149.9h-84.2c-1.6,0-2.8-1.3-2.8-2.8c0-1.6,1.3-2.9,2.8-2.9
		h84.2c1.6,0,2.9,1.3,2.9,2.9C195,148.6,193.7,149.9,192.1,149.9z"/>
</g>
</svg>
