<?xml version="1.0" encoding="utf-8"?>
<!-- Generator: Adobe Illustrator 24.0.1, SVG Export Plug-In . SVG Version: 6.00 Build 0)  -->
<svg version="1.1" id="レイヤー_1" xmlns="http://www.w3.org/2000/svg" xmlns:xlink="http://www.w3.org/1999/xlink" x="0px"
	 y="0px" width="300px" height="300px" viewBox="0 0 300 300" style="enable-background:new 0 0 300 300;" xml:space="preserve">
<path d="M139.8,207.5v-5.4h-31.2c-2.2,0-4.2-0.9-5.4-2.6c-1.5-2-1.7-4.7-0.9-7.5l5.7-18.1c1.1-3.5,4.9-6.1,8.6-6.1h23.3v-54.5
	c-41,0-54.5,3.5-55.5,4.3c-1.1,0.8-15.9,27.9-15.9,27.9s-2,2.2-4.5,5.3c-0.3-0.5-0.7-0.9-0.8-1.3c-0.3-2.2,2.1-5.9-3.2-7.7
	c-5.3-1.7-10.5-1.6-15.1,0.6c-4.7,2.2-6.7,8.5-3.4,10.8c2.4,1.6,11.3,2.5,18.3,3.1c-3.9,5.6-7.6,12.3-7.6,17.7v12.9
	c-1.2,1.2-1.9,2.8-1.9,4.6V218c0,3.6,2.9,6.6,6.6,6.6h26.6c3.6,0,6.6-2.9,6.6-6.6v-8.5H140C139.8,209,139.8,208.2,139.8,207.5z
	 M94.2,179.1c-2.7,0-15.6-1.6-15.6-1.6v-0.1c-1.7,1.4-4,2.2-6.4,2.2c-5.6,0-10.1-4.6-10.1-10.1c0-5.5,4.6-10.1,10.1-10.1
	c3.8,0,7.2,2.2,8.8,5.3l1.2,0.5c0.5-0.2,1-0.3,1.6-0.3c2.3,0,4.3,1.2,5.5,3.1l10.4,4.1C99.8,172.4,96.9,179.1,94.2,179.1z
	 M234.7,87.1h-13.3v-12c0-6.2-5.1-11.4-11.4-11.4h-15.9c-6.2,0-11.4,5.1-11.4,11.4v12h-13.3c-14.1,0-25.4,11.3-25.4,25.4V211
	c0,14.1,11.3,25.4,25.4,25.4h65.2c14.1,0,25.4-11.3,25.4-25.4v-98.6C260,98.4,248.7,87.1,234.7,87.1z M189.5,75.1
	c0-2.6,2.1-4.7,4.7-4.7h15.9c2.6,0,4.7,2.1,4.7,4.7V99c0,2.6-2.1,4.7-4.7,4.7h-15.9c-2.6,0-4.7-2.1-4.7-4.7V75.1z M244.8,208.3
	c0,6.6-5.3,11.8-11.8,11.8h-61.9c-6.6,0-11.8-5.3-11.8-11.8v-93.3c0-6.6,5.3-11.8,11.8-11.8h12.5c1.7,4.2,5.7,7.2,10.5,7.2h15.9
	c4.7,0,8.9-3,10.5-7.2H233c6.6,0,11.8,5.3,11.8,11.8V208.3L244.8,208.3z M210.3,88c0,1.6-1.3,3-3,3h-10.6c-1.6,0-3-1.3-3-3V77.4
	c0-1.6,1.3-3,3-3h10.6c1.6,0,3,1.3,3,3V88z M223.5,181.9l-19.1,19.1l0,0l-5.1,5.1c-1.6,1.6-4.1,1.8-5.9,0.7l-3.2-3.2l-10.4-10.4
	c-1.8-1.8-1.8-4.8,0-6.6l1.6-1.6c1.8-1.8,4.8-1.8,6.6,0l7.9,7.9l0.3-0.3l18.9-19c1.8-1.8,4.8-1.8,6.6,0l1.6,1.6
	C225.4,176.9,225.4,180,223.5,181.9z M230.4,128.5h-57.3c-3,0-5.4-2.4-5.4-5.4l0,0c0-3,2.4-5.4,5.4-5.4h57.3c3,0,5.4,2.4,5.4,5.4
	l0,0C235.9,126.1,233.4,128.5,230.4,128.5z M230.4,146.8h-57.3c-3,0-5.4-2.4-5.4-5.4l0,0c0-3,2.4-5.4,5.4-5.4h57.3
	c3,0,5.4,2.4,5.4,5.4l0,0C235.9,144.4,233.4,146.8,230.4,146.8z M230.4,165.1h-57.3c-3,0-5.4-2.4-5.4-5.4l0,0c0-3,2.4-5.4,5.4-5.4
	h57.3c3,0,5.4,2.4,5.4,5.4l0,0C235.9,162.7,233.4,165.1,230.4,165.1z"/>
</svg>
