<svg xmlns="http://www.w3.org/2000/svg" viewBox="0 0 300 144" width="300" height="144">
	<style>
		tspan { white-space:pre }
		.shp0 { fill: #37b52a } 
	</style>
	<path id="Layer" fill-rule="evenodd" class="shp0" d="M300 72C300 111.8 267.8 144 228 144L72 144C32.2 144 0 111.8 0 72C0 32.2 32.2 0 72 0L228 0C267.8 0 300 32.2 300 72ZM190.3 92.3C187 89.2 176.4 82.9 173.7 82C171 81.1 167.5 83.4 166.3 86.6C165.1 89.8 163.4 89.3 163.4 89.3C163.4 89.3 157.1 86.4 146.1 73.5C135.2 60.6 133.3 53.9 133.3 53.9C133.3 53.9 133.1 52.2 136.5 51.6C139.9 51 142.8 48 142.4 45.2C142 42.4 137.4 31 134.9 27.3C132.4 23.6 126.7 24.9 125.4 25.7C124.1 26.5 110.6 33.4 113.1 48.6C115.7 63.8 122.9 76.4 131.2 86.1C139.5 95.9 150.8 105 165.5 110.1C180.2 115.1 189.4 103.1 190.4 102C191.4 100.9 193.7 95.6 190.3 92.3Z" />
</svg>