<svg xmlns="http://www.w3.org/2000/svg" viewBox="0 0 156 96" width="156" height="96">
	<style>
		tspan { white-space:pre }
		.shp0 { fill: #222222 } 
	</style>
	<g id="App waku">
		<g id="navigation-bar">
			<path id="icon menu" class="shp0" d="M145.04 91.73L10.96 91.73C7.18 91.73 4.12 88.62 4.12 84.79L4.12 83.86C4.12 80.03 7.18 76.92 10.96 76.92L145.04 76.92C148.82 76.92 151.88 80.03 151.88 83.86L151.88 84.79C151.88 88.62 148.82 91.73 145.04 91.73ZM145.04 54.79L10.96 54.79C7.18 54.79 4.12 51.68 4.12 47.84L4.12 46.92C4.12 43.09 7.18 39.98 10.96 39.98L145.04 39.98C148.82 39.98 151.88 43.09 151.88 46.92L151.88 47.84C151.88 51.68 148.82 54.79 145.04 54.79ZM145.04 19.08L10.96 19.08C7.18 19.08 4.12 15.97 4.12 12.14L4.12 11.21C4.12 7.38 7.18 4.27 10.96 4.27L145.04 4.27C148.82 4.27 151.88 7.38 151.88 11.21L151.88 12.14C151.88 15.97 148.82 19.08 145.04 19.08Z" />
		</g>
	</g>
</svg>