<?xml version="1.0" encoding="utf-8"?>
<!-- Generator: Adobe Illustrator 24.0.1, SVG Export Plug-In . SVG Version: 6.00 Build 0)  -->
<svg version="1.1" id="レイヤー_1" xmlns="http://www.w3.org/2000/svg" xmlns:xlink="http://www.w3.org/1999/xlink" x="0px"
	 y="0px" width="300px" height="300px" viewBox="0 0 300 300" style="enable-background:new 0 0 300 300;" xml:space="preserve">
<g>
	<path d="M150,0C67.2,0,0,67.2,0,150s67.2,150,150,150c82.9,0,150-67.2,150-150S232.8,0,150,0z M176.3,218.9
		c-6.1,6.7-9.5,10.7-16.1,17c-9.9,9.5-21.2,12-29.9,2.6c-12.6-13.5,0.6-54.4,0.9-55.9c2.4-10.9,7.1-32.6,7.1-32.6
		s-10.2,6.2-16.2,8.4c-4.5,1.6-9.5-0.5-10.8-4.8c-1.2-4-0.2-6.5,2.2-9.3c6.1-6.7,9.5-10.7,16.1-17c9.9-9.5,21.2-12,29.9-2.7
		c12.6,13.5,3.3,35.6,0,51.3c-0.3,1.6-8.1,37.3-8.1,37.3s10.2-6.2,16.2-8.5c4.5-1.6,9.5,0.5,10.8,4.8
		C179.7,213.6,178.8,216.1,176.3,218.9z M160.1,103.2c-14,1.2-26.3-9.1-27.6-23.1c-1.2-14,9.1-26.3,23.1-27.5s26.3,9.1,27.5,23.1
		C184.4,89.6,174,102,160.1,103.2z"/>
</g>
</svg>
