<?xml version="1.0" encoding="utf-8"?>
<!-- Generator: Adobe Illustrator 24.0.1, SVG Export Plug-In . SVG Version: 6.00 Build 0)  -->
<svg version="1.1" id="レイヤー_1" xmlns="http://www.w3.org/2000/svg" xmlns:xlink="http://www.w3.org/1999/xlink" x="0px"
	 y="0px" width="300px" height="300px" viewBox="0 0 300 300" style="enable-background:new 0 0 300 300;" xml:space="preserve">
<style type="text/css">
	.st0{fill-rule:evenodd;clip-rule:evenodd;}
</style>
<path class="st0" d="M80.9,78.1C96.3,62.7,116.5,55,136.7,55c20.1,0,40.4,7.7,55.7,23.1c15.4,15.4,23.1,35.6,23.1,55.7
	c0,14-3.8,28.1-11.3,40.6l38.2,38.2c7.4,7.4,7.4,19.5,0,26.9c-7.4,7.4-19.5,7.4-26.9,0l-38.2-38.2c-12.5,7.5-26.5,11.4-40.6,11.3
	c-20.1,0-40.4-7.7-55.7-23.1c-15.4-15.3-23.1-35.6-23.1-55.7C57.8,113.7,65.6,93.4,80.9,78.1z M102.5,168
	c9.5,9.5,21.8,14.1,34.2,14.2c12.4,0,24.7-4.7,34.2-14.2c9.5-9.5,14.1-21.8,14.2-34.2c0-12.4-4.7-24.7-14.2-34.2
	c-9.5-9.5-21.8-14.1-34.2-14.2c-12.4,0-24.7,4.7-34.2,14.2c-9.5,9.5-14.1,21.8-14.2,34.2C88.3,146.2,93,158.5,102.5,168z"/>
</svg>
