<svg xmlns="http://www.w3.org/2000/svg" viewBox="0 0 300 300" width="300" height="300">
	<style>
		tspan { white-space:pre }
		.shp0 { fill: #ffffff } 
	</style>
	<g id="Layer">
		<path id="Layer" fill-rule="evenodd" class="shp0" d="M145.4 173.2C150.9 178.4 152.3 193 151.3 201.5C150.8 205.8 148.4 210.8 146.2 214.7C148.1 216.8 149.1 219.6 148.7 222.6L147 236.4C146.3 241.9 141.3 245.8 135.8 245.1C135.4 245 134.9 244.9 134.5 244.8C134 244.9 133.5 244.9 133 244.8L115.6 242.7C116.1 240.7 116.5 238.8 116.8 236.7C119.5 214.5 103.7 194.2 81.5 191.5C59.3 188.8 39 204.6 36.3 226.8C36.1 228.9 36 230.9 36.1 232.9L32 232.4L32 232.5L0 228.6L0 144.9L13.6 146.7L17.6 142.8L14 140.1L9.8 144.4C8.7 145.6 6.9 145.6 5.7 144.5C4.5 143.4 4.5 141.5 5.6 140.4L21.1 124C22.2 122.8 24 122.8 25.2 123.9C26.4 125 26.4 126.9 25.3 128L21.5 132L23.9 136.3L31.1 129.3L17.6 108.6C14.5 103.9 9.4 100.8 3.7 100.4L0 100L0 90.5L9.5 91.7C14.9 92.3 19.7 95.3 22.6 99.8L51.4 143.8C51.4 143.8 125.1 153.9 145.4 173.2ZM147.2 182.2L135.9 180.8C129.8 180.1 124.2 184.4 123.5 190.5C122.8 196.6 127.1 202.1 133.2 202.9L147.9 204.7C148.3 203.5 148.6 202.3 148.7 201.3C149.4 195.4 148.8 187.8 147.2 182.2Z" />
		<path id="Layer" class="shp0" d="M182.9 110.7L202.5 101.1L189.9 121.9L197.6 119L216.2 88.9L190.8 101.2L195.2 61.1L175.6 79.5L168.9 61.9L165.1 80.6L150.3 29.6L144.7 72.5L121.8 62.3L133.4 88.4L93.3 70.5L126 121.6L87 118.4L129.8 144.7L141.4 140.3L113.8 127.5L134.8 129.2L111.7 86.9L142.8 98.6L134.2 75.3L152.7 87.2L152.4 60.3L164.9 95.7L170.9 80.5L175.3 94.8L188.1 76.6L182.9 110.7Z" />
		<path id="Layer" fill-rule="evenodd" class="shp0" d="M296.6 111.1C278.7 111.1 260.7 112.2 242.9 114.5C234.5 115.6 227 121.9 222.9 131.4L210.9 159.3C227.5 158 260.3 156.5 294.4 156.5C296.3 156.5 298.1 156.5 300 156.5L300 251.5L270.5 251.5L233.6 250.4L233.6 255.2C233.6 263.7 227.3 270.5 219.6 270.5L197 270.5C189.3 270.5 183 263.6 183 255.2L183 235C179.3 226.6 176.3 213.4 175.5 200.6C174.7 185.5 181.2 171.5 191.7 164.4L181.4 159.8C177.2 158 175.1 152.6 177.2 148.3C178.3 146 180.3 144.3 183 143.9C183 143.9 191.3 141.2 198.4 142.3C200.5 142.6 202.4 143.9 203.6 145.8L205.8 149.3L215.7 126.2C221.1 113.6 231 105.2 242.1 103.8C261.3 101.4 280.7 100.2 300 100.4L300 111C298.9 111 297.7 110.9 296.6 111.1ZM207.6 187.2C200.4 185.7 194.7 194.9 197.6 203.4L198.3 205.3C200.2 210.6 204.4 214.1 209 214.1L233.8 214.1C239.5 214.1 243.6 207.1 241.9 200.2C239.2 191.5 207.6 187.1 207.6 187.2Z" />
		<path id="Layer" class="shp0" d="M242.7 133.2C232.3 133.2 223.9 141.6 223.9 152L223.9 156.3C239.8 155.4 261.9 154.6 285.3 154.4L285.3 152C285.3 141.6 276.9 133.2 266.5 133.2L242.7 133.2Z" />
		<path id="Layer" class="shp0" d="M76.6 264.9C58.63 264.9 44.1 250.37 44.1 232.4C44.1 214.43 58.63 199.9 76.6 199.9C94.57 199.9 109.1 214.43 109.1 232.4C109.1 250.37 94.57 264.9 76.6 264.9Z" />
	</g>
</svg>