<?xml version="1.0" encoding="utf-8"?>
<!-- Generator: Adobe Illustrator 24.0.1, SVG Export Plug-In . SVG Version: 6.00 Build 0)  -->
<svg version="1.1" id="レイヤー_1" xmlns="http://www.w3.org/2000/svg" xmlns:xlink="http://www.w3.org/1999/xlink" x="0px"
	 y="0px" width="300px" height="300px" viewBox="0 0 300 300" style="enable-background:new 0 0 300 300;" xml:space="preserve">
<g>
	<path d="M93.8,204.4c0,15.6,12.7,28.3,28.3,28.3s28.3-12.7,28.3-28.3s-12.7-28.3-28.3-28.3S93.8,188.9,93.8,204.4z M109.9,204.4
		c0-6.7,5.4-12.1,12.1-12.1s12.1,5.4,12.1,12.1c0,6.7-5.4,12.1-12.1,12.1S109.9,211.1,109.9,204.4z"/>
	<path d="M228.4,84.6c-0.9-10.3-9.9-18.1-20.3-17.2s-18,9.9-17.2,20.3c0.9,10.3,9.9,18.1,20.3,17.2C221.5,104,229.2,94.9,228.4,84.6
		z"/>
	<path d="M172.9,139.7c0.1,0,16.4,4.9,19.4,5.6c5.4,1.3,8.5-0.9,9.1-1.3c3.8-2.2,11.3-8.6,12.4-9.5c3.8,11.5,7.4,21,10.2,38.9
		l2.2,48.5c0.1,4.6,4,8.3,8.6,8.1c4.6-0.1,8.3-4,8.1-8.6c0,0-0.1-34.1,0.1-40.9c0.1-3,0.3-5.4,0.7-7.2c1.7-1.3,3.2-3.1,4.4-5.7
		c5.3-11.3-1.3-20.8-4.7-34.2c-3-11.8-6.4-23.8-14-26.4c-7.5-2.6-12.8,2.8-16.4,5.8c-0.6,0.7-15.9,15.5-18.3,17
		c-0.3,0-15-4.2-15.2-4.3c-3.9-1.8-8.5-0.2-10.3,3.7C167.3,133.2,168.9,137.9,172.9,139.7z"/>
	<path d="M50,102.2v104.6h36.3c-0.1-0.8-0.1-1.6-0.1-2.5c0-19.8,16-35.8,35.8-35.8s35.8,16,35.8,35.8c0,0.8-0.1,1.6-0.1,2.4
		c14.3-1.3,21.2-1.9,23.5-2.6c4.4-1.3,5.8-8.6,6.9-13.9h-0.3c1.9-20.9-4.1-34-4.1-34c-3.3-7.7-30.3-14.1-50.1-19.2
		c1.9-2.1,4-4.4,6.1-6.8c5.8-6.6,12.4-13.8,18.4-19c4.1-3.4,7.9-6,11-7.1c1.1-0.3,2-0.5,3.3-0.7c2.9-0.5,4.9-3.1,4.4-6
		s-3.1-4.9-6-4.4c-1.5,0.2-3.2,0.5-5.1,1.2l-0.1,0.1c-3.8,1.4-7.3,3.6-10.8,6.2c-3.5,2.7-6.8,5.8-10.2,9.1c-6.6,6.6-13,14.2-18.3,20
		c-1.4,1.6-2.8,3.1-4,4.4c-2.2-0.7-4.2-1.4-5.8-2.1C101.4,125.5,71.5,107.4,50,102.2z M158.5,154.6c9.1,1.1,18.3,2.5,19.2,4.1
		c1.9,3.3,3.2,11.9,3.2,11.9s-13.8-7.7-17.3-9.7C158.9,158,151,153.6,158.5,154.6z"/>
</g>
</svg>
