<svg xmlns="http://www.w3.org/2000/svg" viewBox="0 0 300 300" width="300" height="300">
	<style>
		tspan { white-space:pre }
		.shp0 { fill: #ffffff } 
	</style>
	<path id="Layer" fill-rule="evenodd" class="shp0" d="M280 150C280 221.8 221.8 280 150 280C78.2 280 20 221.8 20 150C20 78.2 78.2 20 150 20C221.8 20 280 78.2 280 150ZM219.2 193.8C213.3 188.1 193.9 176.6 189 175C184.1 173.3 177.7 177.5 175.5 183.4C173.3 189.3 170.2 188.3 170.2 188.3C170.2 188.3 158.7 183 138.7 159.5C118.9 136 115.4 123.8 115.4 123.8C115.4 123.8 115 120.7 121.2 119.6C127.3 118.5 132.6 113 131.9 107.9C131.1 102.8 122.8 82 118.2 75.2C113.6 68.5 103.2 70.8 100.9 72.3C98.5 73.8 73.9 86.4 78.5 114.1C83.2 141.9 96.3 164.8 111.5 182.5C126.7 200.4 147.3 217 174.1 226.3C200.9 235.5 217.7 213.6 219.5 211.6C221.3 209.6 225.5 199.9 219.2 193.8Z" />
</svg>