<?xml version="1.0" encoding="utf-8"?>
<!-- Generator: Adobe Illustrator 24.0.1, SVG Export Plug-In . SVG Version: 6.00 Build 0)  -->
<svg version="1.1" id="レイヤー_1" xmlns="http://www.w3.org/2000/svg" xmlns:xlink="http://www.w3.org/1999/xlink" x="0px"
	 y="0px" width="300px" height="300px" viewBox="0 0 300 300" style="enable-background:new 0 0 300 300;" xml:space="preserve">
<g>
	<g>
		<path d="M258.3,133.3H41.7c-9.2,0-16.7,7.5-16.7,16.7v133.3c0,9.2,7.5,16.7,16.7,16.7h216.7c9.2,0,16.7-7.5,16.7-16.7V150
			C275,140.8,267.5,133.3,258.3,133.3z M161.1,222.3l5.5,36.1h-33.3l5.5-36.1c-8.2-4.1-13.9-12.5-13.9-22.3c0-13.8,11.2-25,25-25
			c13.8,0,25,11.2,25,25C175,209.8,169.3,218.2,161.1,222.3z M108.3,41.7h83.3v75h41.7v-75c0-23-18.7-41.7-41.7-41.7h-83.3
			c-23,0-41.7,18.7-41.7,41.7v75h41.7V41.7z"/>
	</g>
</g>
</svg>
