<?xml version="1.0" encoding="utf-8"?>
<!-- Generator: Adobe Illustrator 24.0.1, SVG Export Plug-In . SVG Version: 6.00 Build 0)  -->
<svg version="1.1" id="レイヤー_1" xmlns="http://www.w3.org/2000/svg" xmlns:xlink="http://www.w3.org/1999/xlink" x="0px"
	 y="0px" width="300px" height="300px" viewBox="0 0 300 300" style="enable-background:new 0 0 300 300;" xml:space="preserve">
<style type="text/css">
	.st0{fill:#4B4B4B;}
</style>
<g>
	<path class="st0" d="M298.3,262.6L160.9,24.7c-4.9-8.4-17-8.4-21.9,0L1.7,262.6c-4.9,8.4,1.2,19,10.9,19h274.7
		C297.1,281.6,303.2,271.1,298.3,262.6z M162.3,248.2c0,1.6-5.5,2.8-12.3,2.8c-6.8,0-12.3-1.3-12.3-2.8v-19.7
		c0-1.6,5.5-2.8,12.3-2.8c6.8,0,12.3,1.3,12.3,2.8V248.2z M160.3,202.2c0,0.1,0,0.1,0,0.2c0,2.5-4.6,4.6-10.3,4.6
		c-5.7,0-10.3-2.1-10.3-4.6c0-0.1,0-0.1,0-0.2l-6.4-82.3c0-2.5,7.5-4.6,16.7-4.6s16.7,2.1,16.7,4.6L160.3,202.2z"/>
</g>
</svg>
