<?xml version="1.0" encoding="utf-8"?>
<!-- Generator: Adobe Illustrator 24.0.1, SVG Export Plug-In . SVG Version: 6.00 Build 0)  -->
<svg version="1.1" id="レイヤー_1" xmlns="http://www.w3.org/2000/svg" xmlns:xlink="http://www.w3.org/1999/xlink" x="0px"
	 y="0px" width="300px" height="300px" viewBox="0 0 300 300" style="enable-background:new 0 0 300 300;" xml:space="preserve">
<g>
	<path d="M191.1,197.8l-22.5-22.3h52.6c-5.7-11.3-16.6-20.3-29-22.7L55.6,126.6v113.3h22.2c0-26.4,21.6-47.9,48.4-47.9
		s48.4,21.4,48.4,47.9h17.1c18.7,0,34-15,34-33.7v-8.5H191.1z"/>
	<path d="M99,97.8c-0.3,1.5-1.6,2.8-3.2,3.2l-8.3,1.4c-1.5,0.3-1.5,0.7,0,0.9l8.3,1.3c1.5,0.3,2.8,1.6,3.2,3.2l1.4,8.3
		c0.3,1.5,0.7,1.5,0.9,0l1.3-8.3c0.3-1.5,1.6-2.8,3.2-3.2l8.3-1.4c1.5-0.3,1.5-0.7,0-0.9l-8.3-1.4c-1.5-0.3-2.8-1.6-3.2-3.2
		l-1.4-8.3c-0.3-1.5-0.7-1.5-0.9,0L99,97.8z"/>
	<path d="M134.6,74c-0.4,2.2-2.4,4.2-4.7,4.7l-12.3,2.1c-2.2,0.4-2.2,1,0,1.4l12.3,2.2c2.2,0.4,4.2,2.4,4.7,4.7l2.2,12.3
		c0.4,2.2,1,2.2,1.4,0l2.2-12.3c0.4-2.2,2.4-4.2,4.7-4.7l12.3-2.2c2.2-0.4,2.2-1,0-1.4L145,78.6c-2.2-0.4-4.2-2.4-4.7-4.7l-2.2-12.3
		c-0.4-2.2-1-2.2-1.4,0L134.6,74z"/>
	<path d="M210.6,107.5c-0.5,3-3.4,5.9-6.4,6.4l-17.3,3c-3,0.5-3,1.4,0,1.9l17.3,3c3,0.5,5.9,3.4,6.4,6.4l3,17.3c0.5,3,1.4,3,1.9,0
		l3-17.3c0.5-3,3.4-5.9,6.4-6.4l17.3-3c3-0.5,3-1.4,0-1.9l-17.3-3c-3-0.5-5.9-3.4-6.4-6.4l-3-17.3c-0.5-3-1.4-3-1.9,0L210.6,107.5z"
		/>
</g>
</svg>
