<?xml version="1.0" encoding="utf-8"?>
<!-- Generator: Adobe Illustrator 24.0.1, SVG Export Plug-In . SVG Version: 6.00 Build 0)  -->
<svg version="1.1" xmlns="http://www.w3.org/2000/svg" xmlns:xlink="http://www.w3.org/1999/xlink" x="0px" y="0px" width="300px"
	 height="300px" viewBox="0 0 300 300" style="enable-background:new 0 0 300 300;" xml:space="preserve">
<style type="text/css">
	.st0{fill-rule:evenodd;clip-rule:evenodd;}
</style>
<g id="レイヤー_1">
</g>
<g id="レイヤー_2">
	<g>
		<path class="st0" d="M211.3,275c-2.7,3-27.4,35.2-67,21.8c-39.5-13.7-69.9-38.2-92.2-64.5c-22.3-26.1-41.7-60-48.7-100.8
			C-3.3,90.5,33,71.9,36.5,69.8s18.8-5.6,25.5,4.3s19.1,40.6,20.2,48.1c1.1,7.5-6.7,15.6-15.9,17.2s-8.6,6.2-8.6,6.2
			s5.1,18,34.4,52.7c29.6,34.7,46.5,42.5,46.5,42.5s4.6,1.3,7.8-7.3c3.2-8.6,12.6-14.8,19.9-12.4c7.3,2.4,35.8,19.4,44.6,27.7
			C220.2,257.7,214,272,211.3,275z"/>
		<g>
			<path d="M178.5,176.9l16.3-2.6c-2.8-17.3-10.9-34.1-24.2-47.4c-13.4-13.4-30.1-21.5-47.4-24.2l-2.6,16.3
				c14.1,2.3,27.5,8.8,38.4,19.6C169.8,149.4,176.3,162.8,178.5,176.9z"/>
			<path d="M131.2,51.3l-2.6,16.3c24.5,3.9,48.1,15.2,67,34.1c18.9,18.9,30.3,42.5,34.1,67l16.3-2.6c-4.4-27.8-17.3-54.7-38.8-76.1
				C185.9,68.5,159.1,55.6,131.2,51.3z"/>
			<path d="M244.1,53.4C214.5,23.8,177.7,6,139.4,0l-2.6,16.3c35,5.5,68.6,21.7,95.6,48.7c27,27,43.2,60.6,48.7,95.6l16.3-2.6
				C291.4,119.8,273.6,82.9,244.1,53.4z"/>
		</g>
	</g>
</g>
</svg>
