<?xml version="1.0" encoding="utf-8"?>
<!-- Generator: Adobe Illustrator 24.0.1, SVG Export Plug-In . SVG Version: 6.00 Build 0)  -->
<svg version="1.1" id="レイヤー_2_1_" xmlns="http://www.w3.org/2000/svg" xmlns:xlink="http://www.w3.org/1999/xlink" x="0px"
	 y="0px" width="300px" height="300px" viewBox="0 0 300 300" style="enable-background:new 0 0 300 300;" xml:space="preserve">
<g>
	<path d="M140.9,200.9c-6-10.9-25.5-26-25.5-26l-30.9-25.5c0,0-7.1-4.3-11.1,1.2c-2.7,3.5-0.2,10,2.9,12.8
		c15.3,14,20.3,16.2,19,17.8l-22.9-13.7l-10.1-36c0,0-2-8.9-9.9-6.9c-4.6,1.2-4.7,9.6-4.6,12.1c0.4,8.1,2.7,22,4.2,35.7
		c1.2,10.8,3.7,15,7.2,18.5c6.7,7,28,17.3,28,17.3l12.1,8.5l3.3,19.2l42.9,0.1C145.3,236,144.8,207.9,140.9,200.9z"/>
	<path d="M159.1,200.9c6-10.9,25.5-26,25.5-26l30.9-25.5c0,0,7.1-4.3,11.1,1.2c2.7,3.5,0.2,10-2.9,12.8c-15.3,14-20.3,16.2-19,17.8
		l22.9-13.7l10.1-36c0,0,2-8.9,9.9-6.9c4.6,1.2,4.7,9.6,4.6,12c-0.4,8.1-2.7,22-4.2,35.7c-1.2,10.8-3.7,15-7.2,18.5
		c-6.7,7-28,17.3-28,17.3l-12.1,8.5l-3.3,19.2l-42.9,0.1C154.7,236,155.2,207.9,159.1,200.9z"/>
</g>
<g>
	<g>
		<path d="M123,137H98.6c0,4.6,0,8,0,8c0,3.3,2.7,6.1,6.1,6.1H117c3.3,0,6.1-2.7,6.1-6.1L123,137z"/>
		<path d="M177,145.1c0,3.3,2.7,6.1,6.1,6.1h12.3c3.3,0,6.1-2.7,6.1-6.1c0,0,0-3.5,0-8H177V145.1z"/>
	</g>
	<path d="M197.2,90.2l-2.4-3.3l-8.4-16.5c-3.1-5.9-10.6-10.5-17.2-10.5h-38.2c-6.6,0-14.2,4.6-17.2,10.5L105.2,87l-2.4,3.3
		c-6.5,3.7-11,10.6-11,18.7v17c0,3.7,3.1,6.8,6.8,6.8h102.7c3.7,0,6.8-3.1,6.8-6.8v-17C208.2,100.9,203.7,93.9,197.2,90.2z
		 M124.6,73.8c1.7-3.3,6.1-6,9.9-6h30.9c3.6,0,8.2,2.8,9.9,6l6,11.8c-0.5-0.1-62.2-0.1-62.7,0L124.6,73.8z M113.2,117.2
		c-5.5,0.7-10.1-3.9-9.4-9.4c0.5-3.7,3.5-6.7,7.2-7.2c5.5-0.7,10.1,3.9,9.4,9.4C119.9,113.7,116.9,116.7,113.2,117.2z M189,117.2
		c-5.5,0.7-10.1-3.9-9.4-9.4c0.5-3.7,3.5-6.7,7.2-7.2c5.5-0.7,10.1,3.9,9.4,9.4C195.6,113.7,192.6,116.7,189,117.2z"/>
</g>
</svg>
